<svg width="187" height="48" viewBox="0 0 187 48" fill="none" xmlns="http://www.w3.org/2000/svg">
<path d="M64.796 6C67.4654 6 69.668 6.952 71.404 8.856C73.1586 10.7414 74.036 13.056 74.036 15.8C74.036 18.544 73.1586 20.868 71.404 22.772C69.668 24.6574 67.4654 25.6 64.796 25.6H57.6V6H64.796ZM64.796 24.648C67.1854 24.648 69.1546 23.7986 70.704 22.1C72.2534 20.3826 73.028 18.2826 73.028 15.8C73.028 13.3174 72.2534 11.2266 70.704 9.528C69.1546 7.81066 67.1854 6.952 64.796 6.952H58.636V24.648H64.796Z" fill="black"/>
<path d="M84.1552 25.908C82.1208 25.908 80.3936 25.208 78.9751 23.808C77.5565 22.3894 76.8471 20.6534 76.8471 18.6C76.8471 16.5466 77.5565 14.82 78.9751 13.42C80.3936 12.0014 82.1208 11.292 84.1552 11.292C86.2088 11.292 87.9448 12.0014 89.3632 13.42C90.7816 14.82 91.4912 16.5466 91.4912 18.6C91.4912 20.6534 90.7816 22.3894 89.3632 23.808C87.9448 25.208 86.2088 25.908 84.1552 25.908ZM79.6471 23.136C80.8792 24.3494 82.3816 24.956 84.1552 24.956C85.9288 24.956 87.4312 24.3494 88.6632 23.136C89.8952 21.904 90.5112 20.392 90.5112 18.6C90.5112 16.808 89.8952 15.3054 88.6632 14.092C87.4312 12.86 85.9288 12.244 84.1552 12.244C82.3816 12.244 80.8792 12.86 79.6471 14.092C78.4338 15.3054 77.8271 16.808 77.8271 18.6C77.8271 20.392 78.4338 21.904 79.6471 23.136Z" fill="black"/>
<path d="M101.437 25.908C99.3648 25.908 97.6288 25.208 96.2288 23.808C94.8288 22.408 94.1288 20.672 94.1288 18.6C94.1288 16.528 94.8288 14.792 96.2288 13.392C97.6288 11.992 99.3648 11.292 101.437 11.292C102.799 11.292 104.031 11.6094 105.133 12.244C106.234 12.8786 107.046 13.728 107.569 14.792L106.757 15.268C106.309 14.3534 105.609 13.6254 104.657 13.084C103.705 12.524 102.631 12.244 101.437 12.244C99.6448 12.244 98.1416 12.86 96.9288 14.092C95.7152 15.3054 95.1088 16.808 95.1088 18.6C95.1088 20.392 95.7152 21.904 96.9288 23.136C98.1416 24.3494 99.6448 24.956 101.437 24.956C102.631 24.956 103.695 24.6854 104.629 24.144C105.581 23.584 106.299 22.8466 106.785 21.932L107.597 22.408C107.055 23.472 106.234 24.3214 105.133 24.956C104.031 25.5906 102.799 25.908 101.437 25.908Z" fill="black"/>
<path d="M111.473 15.24C111.473 15.9866 111.771 16.5746 112.369 17.004C112.985 17.4146 113.722 17.7226 114.581 17.928C115.439 18.1146 116.298 18.32 117.157 18.544C118.015 18.768 118.743 19.16 119.341 19.72C119.957 20.2614 120.265 20.9986 120.265 21.932C120.265 23.0706 119.798 24.0226 118.865 24.788C117.95 25.5346 116.765 25.908 115.309 25.908C112.546 25.908 110.791 24.8906 110.045 22.856L110.857 22.38C111.435 24.0974 112.919 24.956 115.309 24.956C116.447 24.956 117.39 24.6854 118.137 24.144C118.883 23.584 119.257 22.8466 119.257 21.932C119.257 21.1666 118.949 20.5694 118.333 20.14C117.735 19.7106 117.007 19.4026 116.149 19.216C115.29 19.0106 114.431 18.796 113.573 18.572C112.714 18.348 111.977 17.9654 111.361 17.424C110.763 16.8826 110.465 16.1546 110.465 15.24C110.465 14.12 110.894 13.1866 111.753 12.44C112.63 11.6746 113.778 11.292 115.197 11.292C116.298 11.292 117.25 11.544 118.053 12.048C118.874 12.5334 119.462 13.196 119.817 14.036L119.005 14.512C118.706 13.784 118.221 13.224 117.549 12.832C116.877 12.44 116.093 12.244 115.197 12.244C114.114 12.244 113.218 12.524 112.509 13.084C111.818 13.6254 111.473 14.344 111.473 15.24Z" fill="black"/>
<path d="M131.13 11.292C133.146 11.292 134.863 12.0014 136.282 13.42C137.701 14.82 138.41 16.5466 138.41 18.6C138.41 20.6534 137.701 22.3894 136.282 23.808C134.863 25.208 133.146 25.908 131.13 25.908C129.693 25.908 128.414 25.544 127.294 24.816C126.174 24.088 125.325 23.108 124.746 21.876V25.6H123.738V6H124.746V15.324C125.325 14.092 126.174 13.112 127.294 12.384C128.414 11.656 129.693 11.292 131.13 11.292ZM126.566 23.136C127.798 24.3494 129.301 24.956 131.074 24.956C132.847 24.956 134.341 24.3494 135.554 23.136C136.786 21.904 137.402 20.392 137.402 18.6C137.402 16.808 136.786 15.3054 135.554 14.092C134.341 12.86 132.847 12.244 131.074 12.244C129.301 12.244 127.798 12.86 126.566 14.092C125.353 15.3054 124.746 16.808 124.746 18.6C124.746 20.392 125.353 21.904 126.566 23.136Z" fill="black"/>
<path d="M154.687 11.6H155.667V25.6H154.687V21.848C154.127 23.08 153.278 24.0694 152.139 24.816C151 25.544 149.722 25.908 148.303 25.908C146.287 25.908 144.57 25.208 143.151 23.808C141.732 22.3894 141.023 20.6534 141.023 18.6C141.023 16.5466 141.732 14.82 143.151 13.42C144.57 12.0014 146.287 11.292 148.303 11.292C149.722 11.292 151 11.6654 152.139 12.412C153.278 13.14 154.127 14.12 154.687 15.352V11.6ZM143.823 23.136C145.055 24.3494 146.558 24.956 148.331 24.956C150.104 24.956 151.607 24.3494 152.839 23.136C154.071 21.904 154.687 20.392 154.687 18.6C154.687 16.808 154.071 15.3054 152.839 14.092C151.607 12.86 150.104 12.244 148.331 12.244C146.558 12.244 145.055 12.86 143.823 14.092C142.61 15.3054 142.003 16.808 142.003 18.6C142.003 20.392 142.61 21.904 143.823 23.136Z" fill="black"/>
<path d="M160.828 15.24C160.828 15.9866 161.126 16.5746 161.724 17.004C162.34 17.4146 163.078 17.7226 163.936 17.928C164.794 18.1146 165.654 18.32 166.512 18.544C167.37 18.768 168.098 19.16 168.696 19.72C169.312 20.2614 169.62 20.9986 169.62 21.932C169.62 23.0706 169.154 24.0226 168.22 24.788C167.306 25.5346 166.12 25.908 164.664 25.908C161.902 25.908 160.146 24.8906 159.4 22.856L160.212 22.38C160.79 24.0974 162.274 24.956 164.664 24.956C165.802 24.956 166.746 24.6854 167.492 24.144C168.238 23.584 168.612 22.8466 168.612 21.932C168.612 21.1666 168.304 20.5694 167.688 20.14C167.09 19.7106 166.362 19.4026 165.504 19.216C164.646 19.0106 163.786 18.796 162.928 18.572C162.07 18.348 161.332 17.9654 160.716 17.424C160.118 16.8826 159.82 16.1546 159.82 15.24C159.82 14.12 160.25 13.1866 161.108 12.44C161.986 11.6746 163.134 11.292 164.552 11.292C165.654 11.292 166.606 11.544 167.408 12.048C168.23 12.5334 168.818 13.196 169.172 14.036L168.36 14.512C168.062 13.784 167.576 13.224 166.904 12.832C166.232 12.44 165.448 12.244 164.552 12.244C163.47 12.244 162.574 12.524 161.864 13.084C161.174 13.6254 160.828 14.344 160.828 15.24Z" fill="black"/>
<path d="M178.952 11.292C181.006 11.292 182.666 12.02 183.936 13.476C185.224 14.932 185.868 16.6586 185.868 18.656C185.868 18.88 185.858 19.0386 185.84 19.132H172.82C172.932 20.868 173.576 22.2774 174.752 23.36C175.928 24.424 177.374 24.956 179.092 24.956C180.268 24.956 181.304 24.7134 182.2 24.228C183.114 23.724 183.796 23.0614 184.244 22.24L185.112 22.744C184.552 23.7146 183.74 24.4894 182.676 25.068C181.63 25.628 180.436 25.908 179.092 25.908C176.964 25.908 175.218 25.2266 173.856 23.864C172.494 22.4826 171.812 20.728 171.812 18.6C171.812 16.528 172.484 14.792 173.828 13.392C175.172 11.992 176.88 11.292 178.952 11.292ZM178.952 12.244C177.234 12.244 175.798 12.804 174.64 13.924C173.502 15.0254 172.886 16.4534 172.792 18.208H184.86C184.73 16.3974 184.104 14.9506 182.984 13.868C181.882 12.7854 180.538 12.244 178.952 12.244Z" fill="black"/>
<path d="M60.536 41.696C59.688 41.696 58.9866 41.416 58.432 40.856C57.8774 40.296 57.6 39.6106 57.6 38.8C57.6 37.9894 57.8774 37.304 58.432 36.744C58.9866 36.184 59.688 35.904 60.536 35.904C61.0534 35.904 61.528 36.0293 61.96 36.28C62.392 36.5253 62.7254 36.8586 62.96 37.28L62.464 37.568C62.288 37.2266 62.0266 36.9546 61.68 36.752C61.3334 36.5493 60.952 36.448 60.536 36.448C59.8374 36.448 59.2666 36.6746 58.824 37.128C58.3814 37.5814 58.16 38.1386 58.16 38.8C58.16 39.4614 58.3814 40.0186 58.824 40.472C59.2666 40.9254 59.8374 41.152 60.536 41.152C60.952 41.152 61.3334 41.0506 61.68 40.848C62.0266 40.6454 62.288 40.3734 62.464 40.032L62.96 40.312C62.7306 40.7334 62.3974 41.0694 61.96 41.32C61.528 41.5706 61.0534 41.696 60.536 41.696Z" fill="black"/>
<path d="M65.6098 37.504C66.2018 37.504 66.6792 37.7147 67.0418 38.136C67.4098 38.552 67.5938 39.0454 67.5938 39.616C67.5938 39.6747 67.5885 39.7574 67.5778 39.864H64.0658C64.1192 40.2694 64.2898 40.592 64.5778 40.832C64.8712 41.0667 65.2312 41.184 65.6578 41.184C65.9618 41.184 66.2232 41.1227 66.4418 41C66.6658 40.872 66.8338 40.7067 66.9458 40.504L67.4098 40.776C67.2338 41.0587 66.9938 41.2827 66.6898 41.448C66.3858 41.6134 66.0392 41.696 65.6498 41.696C65.0206 41.696 64.5086 41.4987 64.1138 41.104C63.7192 40.7094 63.5218 40.208 63.5218 39.6C63.5218 39.0027 63.7166 38.504 64.1058 38.104C64.4952 37.704 64.9966 37.504 65.6098 37.504ZM65.6098 38.016C65.1938 38.016 64.8446 38.1414 64.5618 38.392C64.2846 38.6374 64.1192 38.9574 64.0658 39.352H67.0498C66.9966 38.9307 66.8338 38.6027 66.5618 38.368C66.2898 38.1334 65.9726 38.016 65.6098 38.016Z" fill="black"/>
<path d="M68.9618 38.264C69.2071 37.7787 69.6284 37.536 70.2258 37.536V38.048C69.8631 38.048 69.5618 38.1547 69.3218 38.368C69.0818 38.5814 68.9618 38.9174 68.9618 39.376V41.6H68.4338V37.6H68.9618V38.264Z" fill="black"/>
<path d="M73.1475 38.112H71.9955V40.536C71.9955 40.7546 72.0382 40.912 72.1235 41.008C72.2088 41.0986 72.3368 41.1466 72.5075 41.152C72.6782 41.152 72.8915 41.1466 73.1475 41.136V41.6C72.5875 41.6853 72.1662 41.6453 71.8835 41.48C71.6062 41.3146 71.4675 41 71.4675 40.536V38.112H70.6275V37.6H71.4675V36.64L71.9955 36.48V37.6H73.1475V38.112Z" fill="black"/>
<path d="M74.5635 36.64C74.4888 36.7146 74.3982 36.752 74.2915 36.752C74.1848 36.752 74.0942 36.7146 74.0195 36.64C73.9448 36.5654 73.9075 36.4746 73.9075 36.368C73.9075 36.2614 73.9448 36.1706 74.0195 36.096C74.0942 36.0214 74.1848 35.984 74.2915 35.984C74.3982 35.984 74.4888 36.0214 74.5635 36.096C74.6382 36.1706 74.6755 36.2614 74.6755 36.368C74.6755 36.4746 74.6382 36.5654 74.5635 36.64ZM74.0275 41.6V37.6H74.5555V41.6H74.0275Z" fill="black"/>
<path d="M78.6839 37.6V41.6H78.1559V38.112H76.5239V41.6H75.9959V38.112H75.3159V37.6H75.9959V37.44C75.9959 36.416 76.5559 35.904 77.6759 35.904C77.8999 35.904 78.1559 35.936 78.4439 36V36.48C78.1933 36.4373 77.9373 36.416 77.6759 36.416C77.2759 36.416 76.9827 36.4934 76.7959 36.648C76.6147 36.8026 76.5239 37.0666 76.5239 37.44V37.6H78.6839Z" fill="black"/>
<path d="M81.6488 37.504C82.2408 37.504 82.7184 37.7147 83.0808 38.136C83.4488 38.552 83.6328 39.0454 83.6328 39.616C83.6328 39.6747 83.628 39.7574 83.6168 39.864H80.1048C80.1584 40.2694 80.3288 40.592 80.6168 40.832C80.9104 41.0667 81.2704 41.184 81.6968 41.184C82.0008 41.184 82.2624 41.1227 82.4808 41C82.7048 40.872 82.8728 40.7067 82.9848 40.504L83.4488 40.776C83.2728 41.0587 83.0328 41.2827 82.7288 41.448C82.4248 41.6134 82.0784 41.696 81.6888 41.696C81.06 41.696 80.548 41.4987 80.1528 41.104C79.7582 40.7094 79.561 40.208 79.561 39.6C79.561 39.0027 79.7556 38.504 80.1448 38.104C80.5344 37.704 81.036 37.504 81.6488 37.504ZM81.6488 38.016C81.2328 38.016 80.884 38.1414 80.6008 38.392C80.324 38.6374 80.1584 38.9574 80.1048 39.352H83.0888C83.036 38.9307 82.8728 38.6027 82.6008 38.368C82.3288 38.1334 82.012 38.016 81.6488 38.016Z" fill="black"/>
<path d="M87.9128 36H88.4408V41.6H87.9128V40.816C87.5448 41.4026 87.0064 41.696 86.2968 41.696C85.7264 41.696 85.2384 41.4934 84.8328 41.088C84.4328 40.6826 84.2328 40.1866 84.2328 39.6C84.2328 39.0134 84.4328 38.5174 84.8328 38.112C85.2384 37.7066 85.7264 37.504 86.2968 37.504C87.0064 37.504 87.5448 37.7974 87.9128 38.384V36ZM85.2168 40.728C85.5208 41.032 85.8944 41.184 86.3368 41.184C86.7792 41.184 87.1528 41.032 87.4568 40.728C87.7608 40.4186 87.9128 40.0426 87.9128 39.6C87.9128 39.1574 87.7608 38.784 87.4568 38.48C87.1528 38.1706 86.7792 38.016 86.3368 38.016C85.8944 38.016 85.5208 38.1706 85.2168 38.48C84.9128 38.784 84.7608 39.1574 84.7608 39.6C84.7608 40.0426 84.9128 40.4186 85.2168 40.728Z" fill="black"/>
<path d="M95.1584 36V36.528H93.4384V41.6H92.8784V36.528H91.1584V36H95.1584Z" fill="black"/>
<path d="M95.8448 38.264C96.0896 37.7787 96.5112 37.536 97.1088 37.536V38.048C96.7456 38.048 96.4448 38.1547 96.2048 38.368C95.9648 38.5814 95.8448 38.9174 95.8448 39.376V41.6H95.3168V37.6H95.8448V38.264Z" fill="black"/>
<path d="M101.03 37.6H101.558V41.6H101.03V40.816C100.662 41.4027 100.123 41.696 99.4136 41.696C98.8432 41.696 98.3552 41.4934 97.9504 41.088C97.5504 40.6827 97.3504 40.1867 97.3504 39.6C97.3504 39.0134 97.5504 38.5174 97.9504 38.112C98.3552 37.7067 98.8432 37.504 99.4136 37.504C100.123 37.504 100.662 37.7974 101.03 38.384V37.6ZM98.3336 40.728C98.6376 41.032 99.0112 41.184 99.4536 41.184C99.8968 41.184 100.27 41.032 100.574 40.728C100.878 40.4187 101.03 40.0427 101.03 39.6C101.03 39.1574 100.878 38.784 100.574 38.48C100.27 38.1707 99.8968 38.016 99.4536 38.016C99.0112 38.016 98.6376 38.1707 98.3336 38.48C98.0296 38.784 97.8776 39.1574 97.8776 39.6C97.8776 40.0427 98.0296 40.4187 98.3336 40.728Z" fill="black"/>
<path d="M104.548 37.504C105.034 37.504 105.414 37.6534 105.692 37.952C105.974 38.2454 106.116 38.6427 106.116 39.144V41.6H105.588V39.144C105.588 38.7867 105.492 38.5094 105.3 38.312C105.114 38.1147 104.846 38.016 104.5 38.016C104.116 38.016 103.804 38.1387 103.564 38.384C103.324 38.624 103.204 38.9974 103.204 39.504V41.6H102.676V37.6H103.204V38.224C103.502 37.744 103.95 37.504 104.548 37.504Z" fill="black"/>
<path d="M107.553 38.648C107.553 38.8294 107.633 38.9734 107.793 39.08C107.953 39.1867 108.147 39.2694 108.377 39.328C108.606 39.3867 108.835 39.4534 109.065 39.528C109.294 39.5974 109.489 39.7174 109.649 39.888C109.809 40.0534 109.889 40.272 109.889 40.544C109.889 40.8854 109.753 41.1627 109.481 41.376C109.214 41.5894 108.867 41.696 108.441 41.696C108.057 41.696 107.729 41.6107 107.457 41.44C107.19 41.2694 107.003 41.048 106.897 40.776L107.345 40.512C107.419 40.72 107.553 40.8854 107.745 41.008C107.942 41.1254 108.174 41.184 108.441 41.184C108.702 41.184 108.921 41.1334 109.097 41.032C109.273 40.9254 109.361 40.7627 109.361 40.544C109.361 40.3627 109.281 40.2187 109.121 40.112C108.961 40.0054 108.766 39.9227 108.537 39.864C108.307 39.8054 108.078 39.7414 107.849 39.672C107.619 39.5974 107.425 39.4774 107.265 39.312C107.105 39.1414 107.025 38.92 107.025 38.648C107.025 38.3227 107.153 38.0507 107.409 37.832C107.67 37.6134 107.998 37.504 108.393 37.504C108.718 37.504 109.003 37.5787 109.249 37.728C109.494 37.872 109.675 38.0694 109.793 38.32L109.353 38.576C109.198 38.2027 108.878 38.016 108.393 38.016C108.163 38.016 107.966 38.072 107.801 38.184C107.635 38.2907 107.553 38.4454 107.553 38.648Z" fill="black"/>
<path d="M110.73 41.6V35.76H111.258V41.6H110.73Z" fill="black"/>
<path d="M115.819 37.6H116.347V41.6H115.819V40.816C115.451 41.4027 114.912 41.696 114.203 41.696C113.632 41.696 113.144 41.4934 112.739 41.088C112.339 40.6827 112.139 40.1867 112.139 39.6C112.139 39.0134 112.339 38.5174 112.739 38.112C113.144 37.7067 113.632 37.504 114.203 37.504C114.912 37.504 115.451 37.7974 115.819 38.384V37.6ZM113.123 40.728C113.427 41.032 113.8 41.184 114.243 41.184C114.686 41.184 115.059 41.032 115.363 40.728C115.667 40.4187 115.819 40.0427 115.819 39.6C115.819 39.1574 115.667 38.784 115.363 38.48C115.059 38.1707 114.686 38.016 114.243 38.016C113.8 38.016 113.427 38.1707 113.123 38.48C112.819 38.784 112.667 39.1574 112.667 39.6C112.667 40.0427 112.819 40.4187 113.123 40.728Z" fill="black"/>
<path d="M119.585 38.112H118.433V40.536C118.433 40.7546 118.476 40.912 118.561 41.008C118.646 41.0986 118.774 41.1466 118.945 41.152C119.116 41.152 119.329 41.1466 119.585 41.136V41.6C119.025 41.6853 118.604 41.6453 118.321 41.48C118.044 41.3146 117.905 41 117.905 40.536V38.112H117.065V37.6H117.905V36.64L118.433 36.48V37.6H119.585V38.112Z" fill="black"/>
<path d="M121.001 36.64C120.926 36.7146 120.836 36.752 120.729 36.752C120.622 36.752 120.532 36.7146 120.457 36.64C120.382 36.5654 120.345 36.4746 120.345 36.368C120.345 36.2614 120.382 36.1706 120.457 36.096C120.532 36.0214 120.622 35.984 120.729 35.984C120.836 35.984 120.926 36.0214 121.001 36.096C121.076 36.1706 121.113 36.2614 121.113 36.368C121.113 36.4746 121.076 36.5654 121.001 36.64ZM120.465 41.6V37.6H120.993V41.6H120.465Z" fill="black"/>
<path d="M125.466 41.096C125.06 41.496 124.564 41.696 123.978 41.696C123.39 41.696 122.892 41.496 122.482 41.096C122.076 40.6907 121.874 40.192 121.874 39.6C121.874 39.008 122.076 38.512 122.482 38.112C122.892 37.7067 123.39 37.504 123.978 37.504C124.564 37.504 125.06 37.7067 125.466 38.112C125.876 38.512 126.082 39.008 126.082 39.6C126.082 40.192 125.876 40.6907 125.466 41.096ZM122.858 40.728C123.162 41.032 123.534 41.184 123.978 41.184C124.42 41.184 124.794 41.032 125.098 40.728C125.402 40.4187 125.554 40.0427 125.554 39.6C125.554 39.1574 125.402 38.784 125.098 38.48C124.794 38.1707 124.42 38.016 123.978 38.016C123.534 38.016 123.162 38.1707 122.858 38.48C122.554 38.784 122.402 39.1574 122.402 39.6C122.402 40.0427 122.554 40.4187 122.858 40.728Z" fill="black"/>
<path d="M128.837 37.504C129.322 37.504 129.704 37.6534 129.981 37.952C130.264 38.2454 130.405 38.6427 130.405 39.144V41.6H129.877V39.144C129.877 38.7867 129.781 38.5094 129.589 38.312C129.402 38.1147 129.136 38.016 128.789 38.016C128.405 38.016 128.093 38.1387 127.853 38.384C127.613 38.624 127.493 38.9974 127.493 39.504V41.6H126.965V37.6H127.493V38.224C127.792 37.744 128.24 37.504 128.837 37.504Z" fill="black"/>
<path d="M135.266 41.696C134.754 41.696 134.314 41.576 133.946 41.336C133.583 41.0906 133.33 40.7546 133.186 40.328L133.666 40.048C133.767 40.3946 133.954 40.6666 134.226 40.864C134.498 41.056 134.847 41.152 135.274 41.152C135.69 41.152 136.013 41.0614 136.242 40.88C136.477 40.6934 136.594 40.448 136.594 40.144C136.594 39.8506 136.487 39.6294 136.274 39.48C136.061 39.3306 135.709 39.176 135.218 39.016C134.637 38.824 134.253 38.6694 134.066 38.552C133.639 38.296 133.426 37.9254 133.426 37.44C133.426 36.9654 133.591 36.592 133.922 36.32C134.253 36.0426 134.661 35.904 135.146 35.904C135.583 35.904 135.962 36.0186 136.282 36.248C136.602 36.472 136.839 36.76 136.994 37.112L136.522 37.376C136.266 36.7574 135.807 36.448 135.146 36.448C134.799 36.448 134.519 36.5334 134.306 36.704C134.093 36.8746 133.986 37.112 133.986 37.416C133.986 37.6934 134.082 37.9014 134.274 38.04C134.466 38.1786 134.783 38.32 135.226 38.464C135.429 38.5334 135.573 38.584 135.658 38.616C135.749 38.6426 135.877 38.6906 136.042 38.76C136.213 38.824 136.338 38.8826 136.418 38.936C136.498 38.984 136.594 39.0534 136.706 39.144C136.823 39.2294 136.906 39.3174 136.954 39.408C137.007 39.4934 137.053 39.6 137.09 39.728C137.133 39.8506 137.154 39.984 137.154 40.128C137.154 40.6026 136.981 40.984 136.634 41.272C136.287 41.5546 135.831 41.696 135.266 41.696Z" fill="black"/>
<path d="M139.962 37.504C140.554 37.504 141.03 37.7147 141.394 38.136C141.762 38.552 141.946 39.0454 141.946 39.616C141.946 39.6747 141.94 39.7574 141.93 39.864H138.418C138.47 40.2694 138.642 40.592 138.93 40.832C139.222 41.0667 139.582 41.184 140.01 41.184C140.314 41.184 140.574 41.1227 140.794 41C141.018 40.872 141.186 40.7067 141.298 40.504L141.762 40.776C141.586 41.0587 141.346 41.2827 141.042 41.448C140.738 41.6134 140.39 41.696 140.002 41.696C139.372 41.696 138.86 41.4987 138.466 41.104C138.07 40.7094 137.874 40.208 137.874 39.6C137.874 39.0027 138.068 38.504 138.458 38.104C138.846 37.704 139.348 37.504 139.962 37.504ZM139.962 38.016C139.546 38.016 139.196 38.1414 138.914 38.392C138.636 38.6374 138.47 38.9574 138.418 39.352H141.402C141.348 38.9307 141.186 38.6027 140.914 38.368C140.642 38.1334 140.324 38.016 139.962 38.016Z" fill="black"/>
<path d="M143.314 38.264C143.558 37.7787 143.98 37.536 144.578 37.536V38.048C144.214 38.048 143.914 38.1547 143.674 38.368C143.434 38.5814 143.314 38.9174 143.314 39.376V41.6H142.786V37.6H143.314V38.264Z" fill="black"/>
<path d="M148.181 37.6H148.741L147.101 41.6H146.461L144.821 37.6H145.381L146.781 41.048L148.181 37.6Z" fill="black"/>
<path d="M149.915 36.64C149.84 36.7146 149.75 36.752 149.643 36.752C149.536 36.752 149.446 36.7146 149.371 36.64C149.296 36.5654 149.259 36.4746 149.259 36.368C149.259 36.2614 149.296 36.1706 149.371 36.096C149.446 36.0214 149.536 35.984 149.643 35.984C149.75 35.984 149.84 36.0214 149.915 36.096C149.99 36.1706 150.027 36.2614 150.027 36.368C150.027 36.4746 149.99 36.5654 149.915 36.64ZM149.379 41.6V37.6H149.907V41.6H149.379Z" fill="black"/>
<path d="M152.891 41.696C152.289 41.696 151.787 41.496 151.387 41.096C150.987 40.6907 150.787 40.192 150.787 39.6C150.787 39.008 150.987 38.512 151.387 38.112C151.787 37.7067 152.289 37.504 152.891 37.504C153.286 37.504 153.641 37.6 153.955 37.792C154.27 37.9787 154.499 38.232 154.643 38.552L154.211 38.8C154.105 38.56 153.931 38.3707 153.691 38.232C153.457 38.088 153.19 38.016 152.891 38.016C152.449 38.016 152.075 38.1707 151.771 38.48C151.467 38.784 151.315 39.1574 151.315 39.6C151.315 40.0427 151.467 40.4187 151.771 40.728C152.075 41.032 152.449 41.184 152.891 41.184C153.19 41.184 153.457 41.1147 153.691 40.976C153.926 40.832 154.11 40.64 154.243 40.4L154.683 40.656C154.518 40.976 154.275 41.2294 153.955 41.416C153.635 41.6027 153.281 41.696 152.891 41.696Z" fill="black"/>
<path d="M157.25 37.504C157.842 37.504 158.32 37.7147 158.682 38.136C159.05 38.552 159.234 39.0454 159.234 39.616C159.234 39.6747 159.229 39.7574 159.218 39.864H155.706C155.76 40.2694 155.93 40.592 156.218 40.832C156.512 41.0667 156.872 41.184 157.298 41.184C157.602 41.184 157.864 41.1227 158.082 41C158.306 40.872 158.474 40.7067 158.586 40.504L159.05 40.776C158.874 41.0587 158.634 41.2827 158.33 41.448C158.026 41.6134 157.68 41.696 157.29 41.696C156.661 41.696 156.149 41.4987 155.754 41.104C155.36 40.7094 155.162 40.208 155.162 39.6C155.162 39.0027 155.357 38.504 155.746 38.104C156.136 37.704 156.637 37.504 157.25 37.504ZM157.25 38.016C156.834 38.016 156.485 38.1414 156.202 38.392C155.925 38.6374 155.76 38.9574 155.706 39.352H158.69C158.637 38.9307 158.474 38.6027 158.202 38.368C157.93 38.1334 157.613 38.016 157.25 38.016Z" fill="black"/>
<path d="M160.334 38.648C160.334 38.8294 160.414 38.9734 160.574 39.08C160.734 39.1867 160.929 39.2694 161.158 39.328C161.387 39.3867 161.617 39.4534 161.846 39.528C162.075 39.5974 162.27 39.7174 162.43 39.888C162.59 40.0534 162.67 40.272 162.67 40.544C162.67 40.8854 162.534 41.1627 162.262 41.376C161.995 41.5894 161.649 41.696 161.222 41.696C160.838 41.696 160.51 41.6107 160.238 41.44C159.971 41.2694 159.785 41.048 159.678 40.776L160.126 40.512C160.201 40.72 160.334 40.8854 160.526 41.008C160.723 41.1254 160.955 41.184 161.222 41.184C161.483 41.184 161.702 41.1334 161.878 41.032C162.054 40.9254 162.142 40.7627 162.142 40.544C162.142 40.3627 162.062 40.2187 161.902 40.112C161.742 40.0054 161.547 39.9227 161.318 39.864C161.089 39.8054 160.859 39.7414 160.63 39.672C160.401 39.5974 160.206 39.4774 160.046 39.312C159.886 39.1414 159.806 38.92 159.806 38.648C159.806 38.3227 159.934 38.0507 160.19 37.832C160.451 37.6134 160.779 37.504 161.174 37.504C161.499 37.504 161.785 37.5787 162.03 37.728C162.275 37.872 162.457 38.0694 162.574 38.32L162.134 38.576C161.979 38.2027 161.659 38.016 161.174 38.016C160.945 38.016 160.747 38.072 160.582 38.184C160.417 38.2907 160.334 38.4454 160.334 38.648Z" fill="black"/>
<path fill-rule="evenodd" clip-rule="evenodd" d="M24 36.8C31.0693 36.8 36.8 31.0693 36.8 24C36.8 16.9307 31.0693 11.2 24 11.2C16.9307 11.2 11.2 16.9307 11.2 24C11.2 31.0693 16.9307 36.8 24 36.8ZM24 38.4C31.9529 38.4 38.4 31.9529 38.4 24C38.4 16.0471 31.9529 9.59998 24 9.59998C16.0471 9.59998 9.6 16.0471 9.6 24C9.6 31.9529 16.0471 38.4 24 38.4Z" fill="#174184"/>
<path fill-rule="evenodd" clip-rule="evenodd" d="M24 41.6C33.7202 41.6 41.6 33.7202 41.6 24C41.6 14.2797 33.7202 6.39999 24 6.39999C14.2798 6.39999 6.4 14.2797 6.4 24C6.4 33.7202 14.2798 41.6 24 41.6ZM24 43.2C34.6038 43.2 43.2 34.6038 43.2 24C43.2 13.3961 34.6038 4.79999 24 4.79999C13.3962 4.79999 4.8 13.3961 4.8 24C4.8 34.6038 13.3962 43.2 24 43.2Z" fill="#295AA8"/>
<path fill-rule="evenodd" clip-rule="evenodd" d="M24 46.4C36.3712 46.4 46.4 36.3712 46.4 24C46.4 11.6288 36.3712 1.6 24 1.6C11.6288 1.6 1.6 11.6288 1.6 24C1.6 36.3712 11.6288 46.4 24 46.4ZM24 48C37.2548 48 48 37.2548 48 24C48 10.7452 37.2548 0 24 0C10.7452 0 0 10.7452 0 24C0 37.2548 10.7452 48 24 48Z" fill="#174184"/>
</svg>
